<?xml version="1.0" encoding="UTF-8"?>
<svg width="400" height="230" version="1.1" xmlns="http://www.w3.org/2000/svg">
 <path d="m15.35 102.72c-4.0544 0-5.332 1.2779-5.332 3.9746 0 24.375 0.0684 38.45 0.0684 44.062 0 2.3438 0.92543 3.623 4.0488 3.623 2.4168 0 3.8414-0.56572 4.2676-2.7695 0.56602-2.916 0.49326-3.4102 1.1387-3.4102 1.346 0 1.2791 6.6797 12.438 6.6797 9.4481 0 15.273-8.0299 15.273-19.469 0-12.51-5.685-18.982-14.707-18.982-8.9549 0-10.375 5.1191-11.586 5.1191-0.56601 0-0.71289-0.27874-0.71289-1.5644 0-1.2062 0.13868-2.3427 0.13868-5.9648l0.0117-7.3242c0-2.4839-0.57291-3.9746-5.0469-3.9746zm53.65 14.068c-11.792 0-18.402 7.7442-18.402 18.623 0 12.151 7.0373 19.82 18.336 19.82 12.007 0 16.409-6.3873 16.412-9.9434v-4e-3c-2e-3 -2.4141-1.7057-3.6895-3.5488-3.6895-5.1928 0-3.5556 5.7578-12.438 5.7578-5.3999 0-9.0957-3.6276-9.0957-8.4551 0-1.1389 0.13801-1.8516 1.7051-1.8516 1.6308 0 18.338 0.0684 20.322 0.0684 2.7758 0 4.1211-0.85183 4.1211-5.1191 0-9.7342-6.3264-15.207-17.412-15.207zm0.28516 7.3945c6.039 0 8.5293 3.5557 8.5293 6.1856 0 1.132-0.4262 1.6309-1.7773 1.6309h-13.928c-1.2787 0-1.5664-0.4257-1.5664-1.4902 0-2.4899 2.4901-6.3262 8.7422-6.3262zm-40.572 1.1348c5.1136 0 8.3086 2.6299 8.3086 10.307 0 7.5304-3.4824 11.652-8.7422 11.652-4.9736 0-8.3828-4.1958-8.3828-11.16 0-8.1697 3.7698-10.799 8.8164-10.799zm-13.375 41.355c-4.0544 0-5.332 1.2799-5.332 3.9766 0 24.381 0.0684 38.45 0.0684 44.062 0 2.3438 0.92041 3.627 4.0488 3.627 2.4169 0 3.8415-0.57226 4.2676-2.7754 0.56602-2.9099 0.49433-3.4082 1.1328-3.4082 1.3512 0 1.2823 6.6777 12.436 6.6777 9.4543 0 15.281-8.0299 15.281-19.469 0-12.51-5.687-18.975-14.709-18.975-8.9549 0-10.379 5.1133-11.584 5.1133-0.57291 0-0.71289-0.28559-0.71289-1.5645 0-1.2062 0.13867-2.3447 0.13867-5.9668l6e-3 -7.3223c0-2.4839-0.56642-3.9766-5.041-3.9766zm329.97 0c-3.6951 0-5.0469 1.3519-5.0469 3.8359v39.736c0 5.3997 2.8425 9.0215 8.8145 9.0215 4.3345 0 6.3926-1.5644 6.3926-4.5469 0-2.1306-0.92125-3.2695-2.7715-3.2695-0.77828 0-1.138 0.13867-1.6367 0.13867-0.91978 0-1.2051-0.49954-1.2051-1.8516 0-3.4822 0.28711-34.894 0.28711-39.088 0-3.1231-1.424-3.9766-4.834-3.9766zm-221.38 4e-3c-4.0544 0-5.332 1.2799-5.332 3.9766 0 24.381 0.0684 38.45 0.0684 44.062 0 2.3438 0.92543 3.6289 4.0488 3.6289 2.4168 0 3.8414-0.57417 4.2676-2.7773 0.56602-2.91 0.49331-3.4082 1.1387-3.4082 1.346 0 1.2793 6.6777 12.432 6.6777 9.4541 0 15.279-8.0299 15.279-19.469 0-12.51-5.685-18.975-14.707-18.975-8.9551 0-10.381 5.1133-11.586 5.1133-0.56602 0-0.71289-0.28557-0.71289-1.5644 0-1.2062 0.13867-2.3447 0.13867-5.9668l0.0117-7.3223c0-2.4839-0.57297-3.9766-5.0469-3.9766zm-54.934 14.064c-11.798 0-18.404 7.7504-18.404 18.623 0 12.151 7.0314 19.828 18.33 19.828 12.011 0 16.42-6.3979 16.42-9.9531l-2e-3 4e-3c0-2.4169-1.7044-3.6953-3.5547-3.6953-5.1866 0-3.5497 5.7578-12.432 5.7578-5.4059 0-9.0996-3.6215-9.0996-8.4551 0-1.1389 0.13801-1.8516 1.7051-1.8516 1.6376 0 18.335 0.0703 20.326 0.0703 2.7698 0 4.1211-0.85373 4.1211-5.1211 0-9.7342-6.3246-15.207-17.41-15.207zm248.88 6e-3c-11.798 0-18.408 7.7485-18.408 18.621 0 12.151 7.0373 19.828 18.336 19.828 12.007 0 16.415-6.3933 16.418-9.9492v-4e-3c-2e-3 -2.4142-1.7075-3.6914-3.5566-3.6914-5.1868 0-3.5476 5.7598-12.436 5.7598-5.3999 0-9.0957-3.6235-9.0957-8.457 0-1.1389 0.13801-1.8496 1.7051-1.8496 1.6376 0 18.335 0.0684 20.326 0.0684 2.7698 0 4.1211-0.8518 4.1211-5.1191 0-9.7342-6.3244-15.207-17.41-15.207zm-75.615 0.0723c-8.0296 0-15.846 3.769-15.846 12.012 0 4.9737 2.1298 9.4478 12.363 11.152 8.1757 1.3512 10.447 1.9224 10.447 4.4062 0 1.7776-1.3522 3.5566-6.3262 3.5566-9.521 0-8.8078-6.1133-13.361-6.1133-2.4839 0-3.5488 1.2074-3.5488 3.7695 0 3.5491 4.1931 9.6602 15.918 9.6602 11.865 0 17.125-5.1868 17.125-11.299 0-5.0466-2.1299-8.3816-13.928-10.445-8.0296-1.4184-9.2363-2.6973-9.2363-5.4004 0-2.5567 2.2719-3.8359 6.3203-3.8359 3.4152 0 5.6847 1.0654 7.3223 3.8359 0.56602 0.99228 1.705 2.2773 3.6953 2.2773 2.916 0 4.6211-1.2837 4.6211-3.7012 0-5.1136-4.6207-9.875-15.566-9.875zm36.74 0c-8.0298 0-15.848 3.769-15.848 12.012 0 4.9737 2.1318 9.4478 12.365 11.152 8.1757 1.3512 10.451 1.9224 10.451 4.4062 0 1.7776-1.35 3.5566-6.3301 3.5566-9.5212 0-8.8098-6.1133-13.357-6.1133-2.4898 0-3.5547 1.2074-3.5547 3.7695 0 3.5491 4.195 9.6602 15.92 9.6602 11.871 0 17.131-5.1868 17.131-11.299 0-5.0466-2.1375-8.3816-13.936-10.445-8.0296-1.4184-9.2344-2.6973-9.2344-5.4004 0-2.5567 2.2698-3.8359 6.3242-3.8359 3.409 0 5.6869 1.0654 7.3184 3.8359 0.57292 0.99228 1.705 2.2773 3.6953 2.2773 2.916 0 4.6191-1.2837 4.6191-3.7012 0-5.1136-4.6189-9.875-15.564-9.875zm94.236 4e-3c-8.0358 0-15.854 3.769-15.854 12.012 0 4.9737 2.1377 9.4478 12.371 11.152 8.1696 1.3512 10.447 1.9243 10.447 4.4082 0 1.7776-1.3524 3.5547-6.3262 3.5547-9.5273 0-8.8139-6.1113-13.361-6.1113-2.4837 0-3.5566 1.2056-3.5566 3.7676 0 3.5492 4.195 9.6602 15.92 9.6602 11.871 0 17.131-5.1868 17.131-11.299 0-5.0467-2.1316-8.3816-13.93-10.445-8.0356-1.4185-9.2402-2.6973-9.2402-5.4004 0-2.5567 2.2778-3.8359 6.3262-3.8359 3.4092 0 5.685 1.0654 7.3164 3.8359 0.57292 0.99224 1.7101 2.2773 3.6953 2.2773 2.916 0 4.6211-1.2837 4.6211-3.7012 0-5.1136-4.621-9.875-15.561-9.875zm-181.09 0.5625c-4.0484 0-5.0469 1.2108-5.0469 3.5547 0 12.577 0.0703 7.3178 0.0703 18.689 0 10.447 4.0476 15.633 12.363 15.633 10.167 0 10.519-7.3164 11.725-7.3164 0.64541 0 0.64624 1.3512 1 2.916 0.49872 2.1976 1.418 3.4824 4.5469 3.4824 2.983 0 4.2617-1.4248 4.2617-3.7695h0.0117c0-2.4168 0.21484-25.44 0.21484-29.707 0-2.6299-1.6326-3.2695-5.2539-3.2695-3.7683 0-5.0469 0.92473-5.0469 3.1289 0 2.2707 0.13867 5.3276 0.13867 14.143 0 7.8166-2.4844 11.725-7.5312 11.725-4.1213 0-6.4707-3.1288-6.4707-9.3809 0-3.6221 0.13867-15.136 0.13867-16.414 0-2.7759-1.4923-3.4141-5.1211-3.4141zm-27.787 0.21289c-2.983 0-3.9082 0.78492-3.9082 3.1289 0 2.4167-0.28515 11.159-0.28515 29.988 0 2.6299 1.3505 3.7676 5.1191 3.7676 4.0482 0 5.041-1.2107 5.041-3.7676l-2e-3 -13.217c0-7.1773 3.1295-10.732 9.1016-10.732 3.6222 0 4.1211-2.3428 4.1211-4.9727 0-3.1291-1.2775-4.1953-4.1934-4.1953-7.3172 0-8.6032 6.2578-9.8086 6.2578-0.49872 0-0.71243-0.35819-1.0644-2.7754-0.42598-2.6968-1.1387-3.4824-4.1211-3.4824zm-95.084 6.5391c6.0389 0 8.5273 3.5557 8.5273 6.1856 0 1.1389-0.42619 1.6309-1.7773 1.6309h-13.928c-1.2787 0-1.5645-0.42723-1.5645-1.4922 0-2.4898 2.49-6.3242 8.7422-6.3242zm248.88 4e-3c6.0389 0 8.5234 3.5557 8.5234 6.1856 0 1.1389-0.41924 1.6308-1.7715 1.6308h-13.93c-1.2839 0-1.5644-0.4272-1.5644-1.4922 0-2.4898 2.484-6.3242 8.7422-6.3242zm-289.46 1.1289c5.1198 0 8.3164 2.6299 8.3164 10.307 0 7.5304-3.4824 11.652-8.7422 11.652-4.9736 0-8.3828-4.1938-8.3828-11.158 0-8.1697 3.762-10.801 8.8086-10.801zm108.59 4e-3c5.1196 0 8.3164 2.6299 8.3164 10.307 0 7.5304-3.4824 11.652-8.7422 11.652-4.9737 0-8.3828-4.1938-8.3828-11.158 0-8.1697 3.768-10.801 8.8086-10.801zm-31.48 18.764c-3.409 0-5.6856 1.5646-5.6856 5.3262 0 3.4151 2.1301 5.5449 5.8984 5.5449 3.6221 0 5.9727-1.704 5.9727-5.5449 0-3.4092-1.279-5.3262-6.1856-5.3262z" fill="#1e378a"/>
 <path d="m153.85 74.81 2e-3 2e-3c-18.817 0-37.52 14.178-37.52 37.908 0 22.999 21.294 37.305 39.807 37.305 20.37 0 30.202-6.3799 47.363-2.916 13.423 2.7089 20.674 9.2712 24.277 12.717 1.7222 1.6497 3.9089 1.8447 5.4004 0.8457 1.491-0.98708 2.5013-2.8431 1.4902-7.2871-2.3438-10.361-7.8654-21.951-14.27-31.844-12.589-19.438-38.121-46.73-66.551-46.73zm174.17 0c-28.436 0-53.967 27.292-66.551 46.73-6.4042 9.8926-11.926 21.482-14.27 31.844-1.011 4.444-7.1e-4 6.3 1.4902 7.2871 1.4915 0.99899 3.6782 0.80401 5.4004-0.8457 3.6038-3.4456 10.854-10.008 24.277-12.717 17.167-3.4639 26.994 2.916 47.363 2.916 18.513 0 39.807-14.305 39.807-37.305 0-23.73-18.7-37.908-37.518-37.908v-2e-3z" fill="#1e378a"/>
 <path d="m265.02 10.74c-10.514 0-19.213 4.4135-24.089 10.867-4.8763-6.4531-13.582-10.867-24.089-10.867-19.03 0-36.49 15.146-36.49 37.135 0 9.6369 3.8656 16.948 7.3782 22.062 3.9937 5.832 9.2535 10.885 17.521 18.056 11.993 10.41 21.855 20.57 31.279 40.453 0.74892 1.5824 2.3438 3.3726 4.4014 3.3726 2.0577 0 3.6465-1.7898 4.4015-3.3726 9.4176-19.882 19.286-30.043 31.272-40.453 8.2671-7.1713 13.527-12.224 17.52-18.056 3.5125-5.1136 7.3783-12.425 7.3783-22.062 0-21.989-17.46-37.135-36.484-37.135" fill="#9d9c9c"/>
 <path d="m264.13 21.6c-12.608 0-20.461 9.4968-23.206 16.279-2.7455-6.7818-10.599-16.279-23.2-16.279-14.513 0-26.256 11.987-26.256 26.5 0 5.485 1.869 10.526 5.2294 15.122 13.216 18.062 31.163 23.858 44.227 52.153 13.07-28.296 31.017-34.091 44.233-52.153 3.3543-4.5963 5.2294-9.6369 5.2294-15.122 0-14.513-11.743-26.5-26.256-26.5" fill="#ffe600"/>
</svg>
