<?xml version="1.0" encoding="utf-8"?>
<!-- Generator: Adobe Illustrator 25.0.1, SVG Export Plug-In . SVG Version: 6.00 Build 0)  -->
<svg version="1.1" id="Layer_1" xmlns="http://www.w3.org/2000/svg" xmlns:xlink="http://www.w3.org/1999/xlink" x="0px" y="0px"
	 viewBox="0 0 140.94 45.44" style="enable-background:new 0 0 140.94 45.44;" xml:space="preserve">
<style type="text/css">
	.st0{fill:#3B9A47;}
</style>
<path class="st0" d="M45.51,39.48h4.16V23.8h-4.16V39.48z M56.99,39.79c3.37,0,5.99-2.34,5.99-5.82c0-3.5-2.63-5.78-5.99-5.78
	c-3.31,0-5.99,2.28-5.99,5.78C51,37.46,53.67,39.79,56.99,39.79 M56.99,36.1c-0.92,0-1.79-0.78-1.79-2.12
	c0-1.34,0.89-2.08,1.79-2.08c0.91,0,1.79,0.74,1.79,2.08C58.78,35.32,57.91,36.1,56.99,36.1 M69,25.98h-4.01v2.53h-1.5v3.39h1.5
	v3.06c0,2.9,1.6,4.85,4.9,4.85c0.88,0,1.4-0.08,2.02-0.21v-3.46c-0.35,0.06-0.68,0.1-0.99,0.1c-1.09,0-1.93-0.41-1.93-1.52v-2.8
	h2.78v-3.39H69V25.98z M83.73,33.82c0-3.68-2.39-5.62-5.33-5.62c-3.25,0-5.7,2.39-5.7,5.82c0,3.31,2.3,5.78,6.5,5.78
	c1.38,0,2.67-0.27,3.8-0.82V35.8c-0.97,0.43-2.02,0.82-3.21,0.82c-1.3,0-2.51-0.49-3.04-1.54h6.89
	C83.69,34.71,83.73,34.29,83.73,33.82 M76.59,32.79c0.29-0.88,0.97-1.42,1.79-1.42c0.89,0,1.4,0.66,1.42,1.42H76.59z M85.15,39.48
	h4.16v-4.71c0-1.97,1.11-2.55,2.34-2.55c0.33,0,0.68,0.04,1.03,0.12v-3.85c-0.27-0.08-0.55-0.12-0.9-0.12
	c-0.99,0-2.16,0.43-2.88,1.69h-0.04l-0.41-1.56h-3.31V39.48z M95.7,27.21c1.19,0,2.16-0.95,2.16-2.14c0-1.19-0.97-2.14-2.16-2.14
	c-1.21,0-2.16,0.95-2.16,2.14C93.54,26.26,94.5,27.21,95.7,27.21 M93.62,39.48h4.16V28.51h-4.16V39.48z M101.81,27.21
	c1.19,0,2.16-0.95,2.16-2.14c0-1.19-0.97-2.14-2.16-2.14c-1.21,0-2.16,0.95-2.16,2.14C99.65,26.26,100.6,27.21,101.81,27.21
	 M99.78,28.51v11.81c0,0.51-0.23,0.74-0.8,0.74h-0.84v3.68h1.44c2.57,0,4.51-1.09,4.51-4.49V28.51H99.78z"/>
<path class="st0" d="M52.48,5.97c-1.46,0-2.59,0.72-3.25,1.75h-0.08l-0.41-1.44h-3.23v10.97h4.16v-6.36c0-0.7,0.49-1.23,1.29-1.23
	c0.76,0,1.15,0.39,1.15,1.28v6.3h4.16V9.86C56.28,7.39,54.88,5.97,52.48,5.97 M64.44,16.72c0.74,0.56,1.66,0.74,2.58,0.74
	c0.85,0,1.61-0.16,2.08-0.43v-3.05c-0.18,0.09-0.36,0.13-0.52,0.13c-0.4,0-0.56-0.27-0.56-0.72v-3.18c0-1.39-0.38-2.42-1.37-3.16
	c-0.94-0.72-2.4-1.08-3.99-1.08c-1.66,0-3.14,0.38-4.08,0.81v3.45c0.92-0.38,2.04-0.74,3.21-0.74c0.58,0,1.14,0.09,1.48,0.4
	c0.22,0.22,0.31,0.47,0.31,0.81v0.16c-0.54-0.11-1.08-0.18-1.68-0.18c-1.08,0-2.24,0.2-3.09,0.83c-0.74,0.54-1.3,1.46-1.3,2.65
	c0,1.19,0.54,2.06,1.41,2.64c0.72,0.47,1.59,0.69,2.6,0.69c1.1,0,2.06-0.29,2.87-0.78H64.44z M63.32,14.41
	c-0.22,0.09-0.51,0.16-0.79,0.16c-0.51,0-0.99-0.25-0.99-0.78c0-0.58,0.54-0.81,1.12-0.81c0.16,0,0.45,0.02,0.65,0.07V14.41z
	 M75.18,3.75h-4.01v2.53h-1.5v3.39h1.5v3.06c0,2.9,1.6,4.85,4.9,4.85c0.88,0,1.4-0.08,2.02-0.21v-3.46c-0.35,0.06-0.68,0.1-0.99,0.1
	c-1.09,0-1.93-0.41-1.93-1.52v-2.8h2.78V6.28h-2.78V3.75z M81.73,4.98c1.19,0,2.16-0.95,2.16-2.14c0-1.19-0.97-2.14-2.16-2.14
	c-1.21,0-2.16,0.95-2.16,2.14C79.57,4.03,80.52,4.98,81.73,4.98 M79.65,17.26h4.16V6.28h-4.16V17.26z M91.07,17.57
	c3.37,0,5.99-2.34,5.99-5.82c0-3.5-2.63-5.78-5.99-5.78c-3.31,0-5.99,2.28-5.99,5.78C85.08,15.23,87.74,17.57,91.07,17.57
	 M91.07,13.87c-0.91,0-1.79-0.78-1.79-2.12c0-1.34,0.89-2.08,1.79-2.08c0.91,0,1.79,0.74,1.79,2.08
	C92.86,13.09,91.98,13.87,91.07,13.87 M105.37,5.97c-1.46,0-2.59,0.72-3.25,1.75h-0.08l-0.41-1.44H98.4v10.97h4.16v-6.36
	c0-0.7,0.49-1.23,1.28-1.23c0.76,0,1.15,0.39,1.15,1.28v6.3h4.16V9.86C109.16,7.39,107.76,5.97,105.37,5.97 M117.33,16.72
	c0.74,0.56,1.66,0.74,2.58,0.74c0.85,0,1.61-0.16,2.08-0.43v-3.05c-0.18,0.09-0.36,0.13-0.51,0.13c-0.4,0-0.56-0.27-0.56-0.72v-3.18
	c0-1.39-0.38-2.42-1.37-3.16c-0.94-0.72-2.4-1.08-3.99-1.08c-1.66,0-3.14,0.38-4.08,0.81v3.45c0.92-0.38,2.04-0.74,3.21-0.74
	c0.58,0,1.14,0.09,1.48,0.4c0.22,0.22,0.31,0.47,0.31,0.81v0.16c-0.54-0.11-1.08-0.18-1.68-0.18c-1.08,0-2.24,0.2-3.09,0.83
	c-0.74,0.54-1.3,1.46-1.3,2.65c0,1.19,0.54,2.06,1.41,2.64c0.72,0.47,1.59,0.69,2.6,0.69c1.1,0,2.06-0.29,2.87-0.78H117.33z
	 M116.47,14.41c-0.22,0.09-0.52,0.16-0.79,0.16c-0.52,0-0.99-0.25-0.99-0.78c0-0.58,0.54-0.81,1.12-0.81c0.16,0,0.45,0.02,0.65,0.07
	V14.41z M123.7,17.26h4.16V1.57h-4.16V17.26z M140.23,11.59c0-3.68-2.39-5.62-5.33-5.62c-3.25,0-5.7,2.39-5.7,5.82
	c0,3.31,2.3,5.78,6.5,5.78c1.38,0,2.67-0.27,3.79-0.82v-3.17c-0.97,0.43-2.02,0.82-3.21,0.82c-1.3,0-2.51-0.49-3.03-1.54h6.89
	C140.19,12.49,140.23,12.06,140.23,11.59 M133.36,10.56c0.29-0.88,0.97-1.42,1.79-1.42c0.9,0,1.4,0.66,1.42,1.42H133.36z"/>
<path class="st0" d="M18.53,3.73c-9.85,0-17.83,7.98-17.83,17.82s7.98,17.83,17.83,17.83c6.09,0,11.03-4.94,11.03-11.03
	c0-6.09-4.24-11.16-11.03-11.03c-2.34,0.04-4.32-1.55-4.24-4.24c0.07-2.69,2.69-4.01,5.15-4.12c5.93-0.26,10.31,3.22,12.81,8.24
	c1,2.08,1.58,4.61,1.58,7.07c0,3.58-1.29,6.69-3.31,9.31c-0.14,0.17-0.17,0.44,0,0.61c0.16,0.16,0.43,0.16,0.6,0
	c1.55-1.54,5.24-5.83,5.24-12.63C36.36,11.71,28.38,3.73,18.53,3.73 M18.53,21.56c3.75,0,6.79,3.04,6.79,6.79
	c0,3.75-3.04,6.79-6.79,6.79s-6.79-3.04-6.79-6.79C11.74,24.6,14.78,21.56,18.53,21.56"/>
</svg>
