<svg xmlns="http://www.w3.org/2000/svg" viewBox="0 0 306.06 306.06"><g id="Laag_2" data-name="Laag 2"><g id="Laag_2-2" data-name="Laag 2"><path d="M306.06,153.06c0,84.57-68.56,153-153.24,153C68.33,306-.09,237.36,0,152.64.09,68.55,68.73,0,152.76,0,237.58,0,306.07,68.42,306.06,153.06ZM107.77,135.92c-.23-.57-.38-.88-.49-1.21q-4.11-13-8.21-26a5.92,5.92,0,0,0-6-4.4H46.55a14.49,14.49,0,0,0-3.1.15c-4,.87-5.66,4.69-4,8.75L80.63,214c1.43,3.51,3.05,4.61,6.85,4.6l21.59-.05h66.79c4.26,0,6.68-2.42,6.68-6.68q0-13.68,0-27.35a2.27,2.27,0,0,1,.2-1.25c1.53-1.88,3.12-3.69,4.78-5.63l1,1.66q10.72,17.93,21.45,35.87a6.43,6.43,0,0,0,6,3.4c14.95,0,29.9,0,44.85,0,1.84,0,3.67,0,5.51,0a5.88,5.88,0,0,0,5.71-5,7.25,7.25,0,0,0-1.37-5.06q-21.94-36.56-43.89-73.11a1.59,1.59,0,0,1,.27-2.3c5.65-6.1,11.23-12.26,16.86-18.37,1.89-2.05,2.57-4.34,1.42-6.92s-3.31-3.53-6.12-3.52q-25.11.08-50.24,0c-2.62,0-4.8.55-6.41,2.71,0,0-.14,0-.26,0v-1.31q0-12.6,0-25.18a5.65,5.65,0,0,0-5.22-5.84c-2.62-.2-5.26,0-7.89,0l-39.46,0a5.86,5.86,0,0,0-6.22,4.68q-6.27,22.53-12.51,45.06C110,128.09,108.9,131.87,107.77,135.92Z"/><path d="M176.51,212.48H135.78Q156,155.7,176.09,99.09l.24,0v25.15l.28.11c.83-1,1.66-2.06,2.48-3.11,2.68-3.43,5.33-6.88,8.06-10.28a2.3,2.3,0,0,1,1.56-.79q24.94-.06,49.89,0c.31,0,.62,0,1.14.06-.37.44-.61.74-.86,1-6.39,7-12.76,14-19.19,20.94a1.73,1.73,0,0,0-.29,2.5q23.1,38.38,46.11,76.81c.16.27.3.55.54,1h-1.38c-16,0-31.9,0-47.85,0a2.17,2.17,0,0,1-2.15-1.24Q202,190,189.23,168.74c-.24-.41-.5-.81-.83-1.34-.7.8-1.38,1.56-2,2.33-3,3.48-6,7-9,10.45a3.31,3.31,0,0,0-.89,2.36c0,9.47,0,19,0,28.42Z"/><path d="M123.38,212.58H89.15c-2.58,0-2.59,0-3.56-2.39q-20.16-49.32-40.31-98.65c-.15-.36-.28-.72-.45-1.16H93.29l14.81,46.81,15.1-54.3.18,0Z"/><path d="M129.42,211.73V80.58h46.87l-46.63,131.2Z"/></g></g></svg>